HIERARCHY
ROOT hip
{
	OFFSET 0.000000 0.000000 0.000000
	CHANNELS 6 Xposition Yposition Zposition Xrotation Zrotation Yrotation 
	JOINT abdomen
	{
		OFFSET 0.000000 3.422050 0.000000
		CHANNELS 3 Xrotation Zrotation Yrotation 
		JOINT chest
		{
			OFFSET 0.000000 8.486693 -0.684411
			CHANNELS 3 Xrotation Zrotation Yrotation 
			JOINT neck
			{
				OFFSET 0.000000 10.266162 -0.273764
				CHANNELS 3 Xrotation Zrotation Yrotation 
				JOINT head
				{
					OFFSET 0.000000 3.148285 0.000000
					CHANNELS 3 Xrotation Zrotation Yrotation 
					End Site
					{
						OFFSET 0.000000 3.148289 0.000000
					}
				}
			}
			JOINT lCollar
			{
				OFFSET 3.422053 6.707223 -0.821293
				CHANNELS 3 Yrotation Zrotation Xrotation 
				JOINT lShldr
				{
					OFFSET 3.285171 0.000000 0.000000
					CHANNELS 3 Zrotation Yrotation Xrotation 
					JOINT lForeArm
					{
						OFFSET 10.129278 0.000000 0.000000
						CHANNELS 3 Yrotation Zrotation Xrotation 
						JOINT lHand
						{
							OFFSET 8.486692 0.000000 0.000000
							CHANNELS 3 Zrotation Yrotation Xrotation 
							End Site
							{
								OFFSET 4.106464 0.000000 0.000000
							}
						}
					}
				}
			}
			JOINT rCollar
			{
				OFFSET -3.558935 6.707223 -0.821293
				CHANNELS 3 Yrotation Zrotation Xrotation 
				JOINT rShldr
				{
					OFFSET -3.148289 0.000000 0.000000
					CHANNELS 3 Zrotation Yrotation Xrotation 
					JOINT rForeArm
					{
						OFFSET -10.266159 0.000000 0.000000
						CHANNELS 3 Yrotation Zrotation Xrotation 
						JOINT rHand
						{
							OFFSET -8.349810 0.000000 0.000000
							CHANNELS 3 Zrotation Yrotation Xrotation 
							End Site
							{
								OFFSET -4.106464 0.000000 0.000000
							}
						}
					}
				}
			}
		}
	}
	JOINT lThigh
	{
		OFFSET 5.338403 -1.642589 1.368821
		CHANNELS 3 Xrotation Zrotation Yrotation 
		JOINT lShin
		{
			OFFSET -2.053232 -20.121670 0.000000
			CHANNELS 3 Xrotation Zrotation Yrotation 
			JOINT lFoot
			{
				OFFSET 0.000000 -19.300380 -1.231939
				CHANNELS 3 Xrotation Yrotation Zrotation 
				End Site
				{
					OFFSET 0.000000 -2.463878 4.653993
				}
			}
		}
	}
	JOINT rThigh
	{
		OFFSET -5.338403 -1.642589 1.368821
		CHANNELS 3 Xrotation Zrotation Yrotation 
		JOINT rShin
		{
			OFFSET 2.053232 -20.121670 0.000000
			CHANNELS 3 Xrotation Zrotation Yrotation 
			JOINT rFoot
			{
				OFFSET 0.000000 -19.300380 -1.231939
				CHANNELS 3 Xrotation Yrotation Zrotation 
				End Site
				{
					OFFSET 0.000000 -2.463878 4.653993
				}
			}
		}
	}
}
MOTION
Frames: 18
Frame Time: 0.049897
0.000000 43.528500 0.000000 0.000000 0.000000 0.000000 0.000000 0.000000 0.000000 0.000000 0.000000 0.000000 0.000000 0.000000 0.000000 0.000000 0.000000 0.000000 0.000000 0.000000 0.000000 0.000000 0.000000 0.000000 0.000000 0.000000 0.000000 0.000000 0.000000 0.000000 0.000000 0.000000 0.000000 0.000000 0.000000 0.000000 0.000000 0.000000 0.000000 0.000000 0.000000 0.000000 0.000000 0.000000 0.000000 0.000000 0.000000 0.000000 0.000000 0.000000 0.000000 0.000000 0.000000 0.000000 0.000000 0.000000 0.000000 0.000000 0.000000 0.000000 
0.000000 4.831345 0.000000 -90.001877 0.000000 0.000000 23.538109 0.000000 0.000000 19.257391 -0.120320 -0.639379 17.998348 0.000000 0.000000 8.998567 0.000000 0.000000 8.607481 0.661943 0.337705 -76.760849 30.290161 0.731476 -75.001434 -0.002089 33.998486 -7.002601 0.199413 23.599224 -8.610972 -0.665439 0.337423 76.742165 -30.292879 0.734295 74.998512 -0.001709 34.000713 6.998461 -0.202121 23.599018 -0.822555 19.803667 0.504305 10.208740 -1.981909 -0.080483 13.611595 2.328721 5.489282 -52.002777 -31.002724 -9.001963 129.344330 2.290128 0.117524 18.679640 -1.731586 -5.014312 
0.000000 4.831345 0.000000 -90.001877 0.000000 0.000000 23.584517 0.000000 0.000000 18.888597 -0.120375 -0.628532 17.998348 0.000000 0.000000 8.385678 0.000000 0.000000 8.607481 0.661943 0.337705 -76.760849 30.290161 0.731476 -74.672035 0.037702 33.769043 -7.002602 0.199413 23.599226 -8.610972 -0.665439 0.337423 76.742165 -30.292879 0.734295 74.701805 -0.037566 33.770611 6.998461 -0.202121 23.599018 -0.822555 19.803667 0.504305 10.208740 -1.981909 -0.080483 13.611595 2.328721 5.489282 -52.002777 -31.002724 -9.001963 129.344330 2.290128 0.117524 18.679640 -1.731586 -5.014312 
0.000000 4.831345 0.000000 -90.001877 0.000000 0.000000 23.630928 0.000000 0.000000 18.519585 -0.120360 -0.617679 17.998348 0.000000 0.000000 7.771930 0.000000 0.000000 8.607481 0.661943 0.337705 -76.760849 30.290165 0.731478 -74.342232 0.076196 33.539204 -7.002601 0.199413 23.599224 -8.610972 -0.665439 0.337423 76.742165 -30.292879 0.734296 74.404793 -0.072251 33.540180 6.998461 -0.202121 23.599018 -0.822555 19.803667 0.504305 10.208740 -1.981909 -0.080483 13.611596 2.328721 5.489283 -52.002777 -31.002724 -9.001963 129.344345 2.290129 0.117524 18.679640 -1.731586 -5.014312 
0.000000 4.831345 0.000000 -90.001884 0.000000 0.000000 23.677334 0.000000 0.000000 18.150349 -0.120274 -0.606820 17.998348 0.000000 0.000000 7.157360 0.000000 0.000000 8.607481 0.661943 0.337706 -76.760849 30.290161 0.731476 -74.012047 0.113396 33.308990 -7.002602 0.199413 23.599226 -8.610972 -0.665439 0.337423 76.742165 -30.292879 0.734294 74.107445 -0.105762 33.309429 6.998461 -0.202121 23.599018 -0.822555 19.803667 0.504305 10.208740 -1.981909 -0.080483 13.611595 2.328721 5.489282 -52.002777 -31.002724 -9.001963 129.344330 2.290129 0.117524 18.679640 -1.731586 -5.014312 
0.000000 4.831345 0.000000 -90.001884 0.000000 0.000000 23.723749 0.000000 0.000000 17.780914 -0.120119 -0.595955 17.998352 0.000000 0.000000 6.541999 0.000000 0.000000 8.607481 0.661943 0.337705 -76.760857 30.290165 0.731475 -73.681488 0.149293 33.078403 -7.002601 0.199413 23.599224 -8.610973 -0.665439 0.337423 76.742165 -30.292879 0.734294 73.809792 -0.138098 33.078373 6.998462 -0.202121 23.599018 -0.822555 19.803667 0.504305 10.208740 -1.981909 -0.080483 13.611595 2.328721 5.489282 -52.002781 -31.002724 -9.001966 129.344330 2.290128 0.117524 18.679640 -1.731586 -5.014312 
0.000000 4.831345 0.000000 -90.001877 0.000000 0.000000 23.770163 0.000000 0.000000 17.411270 -0.119894 -0.585086 17.998348 0.000000 0.000000 5.925881 0.000000 0.000000 8.607481 0.661943 0.337705 -76.760849 30.290161 0.731476 -73.350571 0.183879 32.847466 -7.002602 0.199413 23.599228 -8.610972 -0.665439 0.337423 76.742165 -30.292879 0.734295 73.511856 -0.169248 32.847027 6.998461 -0.202121 23.599020 -0.822555 19.803667 0.504305 10.208740 -1.981909 -0.080483 13.611595 2.328721 5.489282 -52.002777 -31.002724 -9.001964 129.344345 2.290129 0.117524 18.679640 -1.731586 -5.014313 
0.000000 4.831345 0.000000 -90.001877 0.000000 0.000000 23.816578 0.000000 0.000000 17.041431 -0.119598 -0.574213 17.998348 0.000000 0.000000 5.309042 0.000000 0.000000 8.607480 0.661943 0.337705 -76.760834 30.290161 0.731479 -73.019302 0.217151 32.616184 -7.002600 0.199413 23.599222 -8.610971 -0.665439 0.337423 76.742149 -30.292873 0.734296 73.213593 -0.199210 32.615376 6.998460 -0.202121 23.599016 -0.822555 19.803665 0.504305 10.208740 -1.981909 -0.080483 13.611595 2.328721 5.489282 -52.002773 -31.002720 -9.001963 129.344330 2.290128 0.117524 18.679638 -1.731586 -5.014312 
0.000000 4.831345 0.000000 -90.001862 0.000000 0.000000 23.862993 0.000000 0.000000 16.671410 -0.119232 -0.563336 17.998346 0.000000 0.000000 4.691514 0.000000 0.000000 8.607480 0.661943 0.337705 -76.760834 30.290161 0.731479 -72.687706 0.249104 32.384575 -7.002601 0.199413 23.599224 -8.610970 -0.665439 0.337423 76.742149 -30.292877 0.734298 72.915100 -0.227979 32.383472 6.998460 -0.202121 23.599018 -0.822555 19.803667 0.504305 10.208739 -1.981909 -0.080483 13.611595 2.328721 5.489282 -52.002777 -31.002720 -9.001962 129.344330 2.290128 0.117524 18.679638 -1.731586 -5.014312 
0.000000 4.831345 0.000000 -90.001862 0.000000 0.000000 23.909414 0.000000 0.000000 16.301212 -0.118795 -0.552457 17.998348 0.000000 0.000000 4.073332 0.000000 0.000000 8.607481 0.661943 0.337705 -76.760849 30.290161 0.731475 -72.355820 0.279729 32.152657 -7.002600 0.199413 23.599224 -8.610972 -0.665439 0.337423 76.742149 -30.292877 0.734296 72.616310 -0.255553 32.151287 6.998461 -0.202121 23.599018 -0.822555 19.803667 0.504305 10.208740 -1.981909 -0.080483 13.611595 2.328721 5.489282 -52.002777 -31.002720 -9.001959 129.344330 2.290128 0.117524 18.679640 -1.731586 -5.014312 
0.000000 4.831345 0.000000 -90.001877 0.000000 0.000000 23.955832 0.000000 0.000000 15.930841 -0.118288 -0.541575 17.998348 0.000000 0.000000 3.454534 0.000000 0.000000 8.607481 0.661943 0.337705 -76.760849 30.290161 0.731476 -72.023582 0.309033 31.920425 -7.002601 0.199413 23.599224 -8.610971 -0.665439 0.337423 76.742149 -30.292877 0.734296 72.317284 -0.281927 31.918854 6.998461 -0.202121 23.599018 -0.822555 19.803667 0.504305 10.208740 -1.981909 -0.080483 13.611595 2.328721 5.489282 -52.002777 -31.002724 -9.001963 129.344330 2.290128 0.117524 18.679640 -1.731586 -5.014312 
0.000000 4.831345 0.000000 -90.001877 0.000000 0.000000 24.002260 0.000000 0.000000 15.560300 -0.117710 -0.530692 17.998348 0.000000 0.000000 2.835154 0.000000 0.000000 8.607481 0.661943 0.337705 -76.760849 30.290161 0.731476 -71.691093 0.336997 31.687912 -7.002600 0.199413 23.599224 -8.610972 -0.665439 0.337423 76.742165 -30.292879 0.734295 72.017998 -0.307099 31.686176 6.998461 -0.202121 23.599018 -0.822555 19.803667 0.504305 10.208740 -1.981909 -0.080483 13.611595 2.328721 5.489282 -52.002777 -31.002720 -9.001964 129.344330 2.290128 0.117524 18.679640 -1.731586 -5.014312 
0.000000 4.831345 0.000000 -90.001877 0.000000 0.000000 24.048687 0.000000 0.000000 15.189610 -0.117061 -0.519809 17.998348 0.000000 0.000000 2.215225 0.000000 0.000000 8.607481 0.661943 0.337705 -76.760849 30.290161 0.731476 -71.358292 0.363627 31.455118 -7.002601 0.199413 23.599224 -8.610972 -0.665439 0.337423 76.742165 -30.292879 0.734295 71.718491 -0.331068 31.453274 6.998461 -0.202121 23.599018 -0.822555 19.803667 0.504305 10.208740 -1.981909 -0.080483 13.611595 2.328721 5.489282 -52.002777 -31.002724 -9.001963 129.344330 2.290128 0.117524 18.679640 -1.731586 -5.014312 
0.000000 4.831345 0.000000 -90.001877 0.000000 0.000000 24.095116 0.000000 0.000000 14.818771 -0.116342 -0.508926 17.998348 0.000000 0.000000 1.594786 0.000000 0.000000 8.607481 0.661943 0.337705 -76.760849 30.290161 0.731476 -71.025230 0.388920 31.222059 -7.002601 0.199413 23.599224 -8.610972 -0.665439 0.337423 76.742165 -30.292879 0.734295 71.418770 -0.353827 31.220146 6.998461 -0.202121 23.599018 -0.822555 19.803667 0.504305 10.208740 -1.981909 -0.080483 13.611595 2.328721 5.489282 -52.002777 -31.002724 -9.001963 129.344330 2.290128 0.117524 18.679640 -1.731586 -5.014312 
0.000000 4.831345 0.000000 -90.001877 0.000000 0.000000 24.141544 0.000000 0.000000 14.447793 -0.115552 -0.498044 17.998348 0.000000 0.000000 0.973871 0.000000 0.000000 8.607481 0.661943 0.337705 -76.760849 30.290161 0.731476 -70.691925 0.412864 30.988750 -7.002601 0.199413 23.599224 -8.610972 -0.665439 0.337423 76.742165 -30.292879 0.734295 71.118828 -0.375376 30.986813 6.998461 -0.202121 23.599018 -0.822555 19.803667 0.504305 10.208740 -1.981909 -0.080483 13.611595 2.328721 5.489282 -52.002781 -31.002724 -9.001964 129.344330 2.290128 0.117524 18.679640 -1.731586 -5.014312 
0.000000 4.831345 0.000000 -90.001884 0.000000 0.000000 24.187977 0.000000 0.000000 14.076683 -0.114692 -0.487163 17.998348 0.000000 0.000000 0.352515 0.000000 0.000000 8.607481 0.661943 0.337706 -76.760857 30.290165 0.731475 -70.358383 0.435460 30.755211 -7.002601 0.199413 23.599224 -8.610973 -0.665439 0.337423 76.742165 -30.292879 0.734294 70.818695 -0.395708 30.753283 6.998461 -0.202121 23.599020 -0.822555 19.803667 0.504305 10.208741 -1.981909 -0.080483 13.611596 2.328722 5.489283 -52.002777 -31.002724 -9.001963 129.344345 2.290129 0.117524 18.679640 -1.731586 -5.014312 
0.000000 4.831345 0.000000 -90.001884 0.000000 0.000000 24.234406 0.000000 0.000000 13.705446 -0.113760 -0.476284 17.998350 0.000000 0.000000 -0.269245 0.000000 0.000000 8.607482 0.661943 0.337705 -76.760857 30.290165 0.731475 -70.024597 0.456706 30.521444 -7.002601 0.199413 23.599228 -8.610973 -0.665439 0.337423 76.742165 -30.292879 0.734295 70.518372 -0.414821 30.519567 6.998461 -0.202121 23.599020 -0.822555 19.803669 0.504305 10.208740 -1.981909 -0.080483 13.611595 2.328721 5.489282 -52.002777 -31.002724 -9.001964 129.344330 2.290128 0.117524 18.679640 -1.731586 -5.014312 
0.000000 4.831345 0.000000 -90.001877 0.000000 0.000000 24.280842 0.000000 0.000000 13.334091 -0.112758 -0.465408 17.998348 0.000000 0.000000 -0.891371 0.000000 0.000000 8.607481 0.661943 0.337706 -76.760849 30.290165 0.731478 -69.690620 0.476596 30.287474 -7.002601 0.199413 23.599226 -8.610972 -0.665439 0.337423 76.742165 -30.292879 0.734296 70.217865 -0.432718 30.285671 6.998461 -0.202121 23.599020 -0.822555 19.803671 0.504305 10.208740 -1.981909 -0.080483 13.611595 2.328721 5.489282 -52.002781 -31.002724 -9.001966 129.344330 2.290128 0.117524 18.679642 -1.731586 -5.014312 
